# Blender 4.4.3
# www.blender.org
mtllib Cactus.mtl
o Cube
v -0.749558 -1.000000 0.749558
v -0.749558 -0.478457 0.749558
v -0.749558 -1.000000 -0.749558
v -0.749558 -0.478457 -0.749558
v 0.749558 -1.000000 0.749558
v 0.749558 -0.478457 0.749558
v 0.749558 -1.000000 -0.749558
v 0.749558 -0.478457 -0.749558
v -0.494352 2.718873 0.494352
v -0.494352 2.718873 -0.494352
v 0.494352 2.718873 0.494352
v 0.494352 2.718873 -0.494352
v 0.641997 0.869117 -0.641997
v 0.301191 1.124681 0.621598
v -0.301191 1.124681 0.621598
v -0.641997 0.869117 -0.641997
v 0.568174 1.793995 -0.568174
v -0.273895 1.538432 0.588573
v 0.273895 1.538432 0.588573
v -0.568174 1.793995 -0.568174
v 0.568174 1.793995 0.568174
v 0.641997 0.869117 0.641997
v -0.641997 0.869117 0.641997
v -0.568174 1.793995 0.568174
v 0.273895 1.604869 1.420916
v 0.301191 1.191117 1.453941
v -0.301191 1.191117 1.453941
v -0.273895 1.604869 1.420916
v 0.268365 1.603006 1.437693
v 0.324373 1.323279 1.740417
v -0.270481 1.358403 1.828614
v -0.272579 1.634947 1.517897
v 0.369215 2.131526 1.907405
v 0.425223 1.851798 2.210129
v -0.169631 1.886922 2.298326
v -0.171730 2.163466 1.987609
vn -1.0000 -0.0000 -0.0000
vn -0.0000 -0.0000 -1.0000
vn 1.0000 -0.0000 -0.0000
vn -0.0000 -0.0000 1.0000
vn -0.0000 -1.0000 -0.0000
vn 0.9968 0.0796 -0.0000
vn -0.0000 1.0000 -0.0000
vn -0.9968 0.0796 -0.0000
vn -0.0000 0.0796 0.9968
vn -0.0000 0.0796 -0.9968
vn 0.9978 0.0654 -0.0052
vn 0.0108 0.9706 -0.2403
vn -0.0000 0.9968 -0.0796
vn -0.0000 -0.9968 0.0796
vn -0.9978 0.0654 -0.0052
vn -0.9900 0.1022 0.0976
vn 0.0036 -0.9110 0.4123
vn -0.9974 0.0580 0.0434
vn 0.9930 0.0756 -0.0903
vn 0.1412 0.7400 0.6576
vn 0.9808 -0.0142 -0.1946
vn -0.0700 0.6701 -0.7390
vn 0.0700 -0.6701 0.7390
vt 0.430447 -0.211392
vt 0.427248 -0.014566
vt 0.993003 -0.005372
vt 0.996202 -0.202198
vt 0.301331 0.109686
vt 0.301331 0.247920
vt 0.698669 0.247920
vt 0.698669 0.109686
vt 0.698669 0.109686
vt 0.698669 0.247920
vt 0.301331 0.247920
vt 0.301331 0.109686
vt 0.481763 0.844152
vt 0.910612 0.851122
vt 0.877079 1.199711
vt 0.503951 1.193646
vt 0.349407 0.850228
vt 0.650593 0.850228
vt 0.631027 1.095365
vt 0.368973 1.095365
vt 0.650593 0.850228
vt 0.349407 0.850228
vt 0.329840 0.605091
vt 0.670160 0.605091
vt 0.459576 0.494657
vt 0.944145 0.502533
vt 0.465706 0.591230
vt 0.475632 0.747579
vt 0.161105 0.767547
vt 0.151179 0.611198
vt 0.572595 0.782492
vt 0.579830 0.672828
vt 0.420170 0.672828
vt 0.427405 0.782492
vt 0.124320 0.778303
vt 0.154785 0.766741
vt 0.420170 0.690437
vt 0.427405 0.800101
vt 0.008755 0.672032
vt -0.171753 0.868610
vt -0.056187 0.974882
vt 0.042255 0.659318
vt -0.138252 0.855896
vt -0.025723 0.963319
s 0
usemtl Material.003
f 1/1/1 2/2/1 4/3/1 3/4/1
f 3/5/2 4/6/2 8/7/2 7/8/2
f 7/4/3 8/3/3 6/2/3 5/1/3
f 5/9/4 6/10/4 2/11/4 1/12/4
f 3/4/5 7/4/5 5/1/5 1/1/5
f 21/13/6 17/14/6 12/15/6 11/16/6
f 12/15/7 10/15/7 9/16/7 11/16/7
f 20/14/8 24/13/8 9/16/8 10/15/8
f 24/17/9 21/18/9 11/19/9 9/20/9
f 17/21/10 20/22/10 10/20/10 12/19/10
f 8/7/10 4/6/10 16/23/10 13/24/10
f 2/11/9 6/10/9 22/24/9 23/23/9
f 4/3/8 2/2/8 23/25/8 16/26/8
f 6/2/6 8/3/6 13/26/6 22/25/6
f 13/24/10 16/23/10 20/22/10 17/21/10
f 14/27/11 19/28/11 25/29/11 26/30/11
f 16/26/8 23/25/8 24/13/8 20/14/8
f 22/25/6 13/26/6 17/14/6 21/13/6
f 19/31/9 14/32/9 22/24/9 21/18/9
f 14/32/9 15/33/9 23/23/9 22/24/9
f 15/33/9 18/34/9 24/17/9 23/23/9
f 18/34/9 19/31/9 21/18/9 24/17/9
f 25/29/12 28/29/12 32/35/12 29/36/12
f 19/28/13 18/28/13 28/29/13 25/29/13
f 15/27/14 14/27/14 26/30/14 27/30/14
f 18/34/15 15/33/15 27/37/15 28/38/15
f 32/35/16 31/39/16 35/40/16 36/41/16
f 27/30/17 26/30/17 30/42/17 31/39/17
f 28/29/18 27/30/18 31/39/18 32/35/18
f 26/30/19 25/29/19 29/36/19 30/42/19
f 35/40/20 34/43/20 33/44/20 36/41/20
f 30/42/21 29/36/21 33/44/21 34/43/21
f 29/36/22 32/35/22 36/41/22 33/44/22
f 31/39/23 30/42/23 34/43/23 35/40/23
